<?xml version="1.0" encoding="UTF-8"?>
<svg enable-background="new 0 0 1200 1200" version="1.1" viewBox="0 0 1200 1200" xml:space="preserve" xmlns="http://www.w3.org/2000/svg" xmlns:cc="http://creativecommons.org/ns#" xmlns:dc="http://purl.org/dc/elements/1.1/" xmlns:rdf="http://www.w3.org/1999/02/22-rdf-syntax-ns#"><metadata><rdf:RDF><cc:Work rdf:about=""><dc:format>image/svg+xml</dc:format><dc:type rdf:resource="http://purl.org/dc/dcmitype/StillImage"/></cc:Work></rdf:RDF></metadata>
	<rect y="1050" width="150" height="150"/><rect x="150" y="1050" width="150" height="150" fill="#fff"/><rect x="300" y="1050" width="150" height="150"/><rect x="450" y="1050" width="150" height="150" fill="#fff"/><rect x="600" y="1050" width="150" height="150"/><rect x="750" y="1050" width="150" height="150" fill="#fff"/><rect x="900" y="1050" width="150" height="150"/><rect x="1050" y="1050" width="150" height="150" fill="#fff"/><rect transform="scale(-1,1)" x="-1200" y="900" width="150" height="150"/><rect transform="scale(-1,1)" x="-1050" y="900" width="150" height="150" fill="#fff"/><rect transform="scale(-1,1)" x="-900" y="900" width="150" height="150"/><rect transform="scale(-1,1)" x="-750" y="900" width="150" height="150" fill="#fff"/><rect transform="scale(-1,1)" x="-600" y="900" width="150" height="150"/><rect transform="scale(-1,1)" x="-450" y="900" width="150" height="150" fill="#fff"/><rect transform="scale(-1,1)" x="-300" y="900" width="150" height="150"/><rect transform="scale(-1,1)" x="-150" y="900" width="150" height="150" fill="#fff"/><rect y="750" width="150" height="150"/><rect x="150" y="750" width="150" height="150" fill="#fff"/><rect x="300" y="750" width="150" height="150"/><rect x="450" y="750" width="150" height="150" fill="#fff"/><rect x="600" y="750" width="150" height="150"/><rect x="750" y="750" width="150" height="150" fill="#fff"/><rect x="900" y="750" width="150" height="150"/><rect x="1050" y="750" width="150" height="150" fill="#fff"/><rect transform="scale(-1,1)" x="-1200" y="600" width="150" height="150"/><rect transform="scale(-1,1)" x="-1050" y="600" width="150" height="150" fill="#fff"/><rect transform="scale(-1,1)" x="-900" y="600" width="150" height="150"/><rect transform="scale(-1,1)" x="-750" y="600" width="150" height="150" fill="#fff"/><rect transform="scale(-1,1)" x="-600" y="600" width="150" height="150"/><rect transform="scale(-1,1)" x="-450" y="600" width="150" height="150" fill="#fff"/><rect transform="scale(-1,1)" x="-300" y="600" width="150" height="150"/><rect transform="scale(-1,1)" x="-150" y="600" width="150" height="150" fill="#fff"/><rect y="450" width="150" height="150"/><rect x="150" y="450" width="150" height="150" fill="#fff"/><rect x="300" y="450" width="150" height="150"/><rect x="450" y="450" width="150" height="150" fill="#fff"/><rect x="600" y="450" width="150" height="150"/><rect x="750" y="450" width="150" height="150" fill="#fff"/><rect x="900" y="450" width="150" height="150"/><rect x="1050" y="450" width="150" height="150" fill="#fff"/><rect transform="scale(-1,1)" x="-1200" y="300" width="150" height="150"/><rect transform="scale(-1,1)" x="-1050" y="300" width="150" height="150" fill="#fff"/><rect transform="scale(-1,1)" x="-900" y="300" width="150" height="150"/><rect transform="scale(-1,1)" x="-750" y="300" width="150" height="150" fill="#fff"/><rect transform="scale(-1,1)" x="-600" y="300" width="150" height="150"/><rect transform="scale(-1,1)" x="-450" y="300" width="150" height="150" fill="#fff"/><rect transform="scale(-1,1)" x="-300" y="300" width="150" height="150"/><rect transform="scale(-1,1)" x="-150" y="300" width="150" height="150" fill="#fff"/><rect y="150" width="150" height="150"/><rect x="150" y="150" width="150" height="150" fill="#fff"/><rect x="300" y="150" width="150" height="150"/><rect x="450" y="150" width="150" height="150" fill="#fff"/><rect x="600" y="150" width="150" height="150"/><rect x="750" y="150" width="150" height="150" fill="#fff"/><rect x="900" y="150" width="150" height="150"/><rect x="1050" y="150" width="150" height="150" fill="#fff"/><rect transform="scale(-1,1)" x="-1200" width="150" height="150"/><rect transform="scale(-1,1)" x="-1050" width="150" height="150" fill="#fff"/><rect transform="scale(-1,1)" x="-900" width="150" height="150"/><rect transform="scale(-1,1)" x="-750" width="150" height="150" fill="#fff"/><rect transform="scale(-1,1)" x="-600" width="150" height="150"/><rect transform="scale(-1,1)" x="-450" width="150" height="150" fill="#fff"/><rect transform="scale(-1,1)" x="-300" width="150" height="150"/><rect transform="scale(-1,1)" x="-150" width="150" height="150" fill="#fff"/><rect transform="scale(-1,1)" x="-1195" y="5" width="1190" height="1190" fill="none" stroke="#000" stroke-width="10"/><path d="m75.001 928.22c-6.772 0-12.269 5.497-12.269 12.27 0 2.716 0.901 5.253 2.396 7.286-5.987 3.441-10.064 9.857-10.064 17.255 0 6.239 2.889 11.776 7.38 15.434-9.199 3.245-22.717 17.015-22.717 41.316h70.546c0-24.302-13.518-38.071-22.717-41.316 4.491-3.657 7.381-9.194 7.381-15.434 0-7.397-4.078-13.813-10.064-17.255 1.495-2.033 2.396-4.57 2.396-7.286 1e-3 -6.773-5.495-12.27-12.268-12.27z" stroke="#fff" stroke-linecap="round" stroke-width="5"/><path d="m1125 178.22c-6.772 0-12.269 5.497-12.269 12.27 0 2.715 0.901 5.253 2.396 7.286-5.987 3.442-10.064 9.857-10.064 17.255 0 6.24 2.89 11.777 7.38 15.434-9.198 3.245-22.716 17.015-22.716 41.316h70.546c0-24.301-13.518-38.071-22.717-41.316 4.491-3.657 7.381-9.194 7.381-15.434 0-7.397-4.077-13.813-10.064-17.255 1.494-2.033 2.396-4.57 2.396-7.286 0-6.773-5.497-12.27-12.269-12.27z" fill="#fff" stroke="#000" stroke-linecap="round" stroke-width="5"/><g transform="matrix(3.0672 0 0 3.0676 -496.97 -3049.5)" stroke="#000" stroke-width="1.63">
	<path d="m270.79 1032.4c3.385-0.972 10.115 0.431 13.5-2 3.385 2.431 10.115 1.028 13.5 2 0 0 1.646 0.542 3 2-0.677 0.972-1.646 0.986-3 0.5-3.385-0.972-10.115 0.458-13.5-1-3.385 1.458-10.115 0.028-13.5 1-1.354 0.486-2.323 0.472-3-0.5 1.354-1.944 3-2 3-2z" fill="#fff" stroke-linejoin="round"/>
		<path d="m276.79 1028.4c2.5 2.5 12.5 2.5 15 0 0.5-1.5 0-2 0-2 0-2.5-2.5-4-2.5-4 5.5-1.5 6-11.5-5-15.5-11 4-10.5 14-5 15.5 0 0-2.5 1.5-2.5 4 0 0-0.5 0.5 0 2z" fill="#fff" stroke-linejoin="round"/>
		<path d="m286.79 1004.4c0 1.381-1.119 2.5-2.5 2.5-1.38 0-2.5-1.119-2.5-2.5s1.119-2.5 2.5-2.5c1.38 0 2.5 1.12 2.5 2.5z" fill="#fff" stroke-linejoin="round"/>
		<path d="m279.29 1022.4h10" fill="none"/>
		<path d="m276.79 1026.4h15" fill="none"/>
		<path d="m284.29 1011.9v5" fill="none" stroke-linecap="round"/>
		<path d="m281.79 1014.4h5" fill="none" stroke-linecap="round"/>
</g><g transform="matrix(3.0672 0 0 3.0676 -827.64 -3347.5)" stroke="#000" stroke-width="1.63">
	<path d="m280.79 1130.7h27v-3h-27v3z" fill="#fff" stroke-linejoin="round"/>
		<path d="m283.79 1127.7v-4h21v4h-21z" fill="#fff" stroke-linejoin="round"/>
		<path d="m282.79 1105.7v-5h4v2h5v-2h5v2h5v-2h4v5" fill="#fff" stroke-linejoin="round"/>
		<path d="m305.79 1105.7-3 3h-17l-3-3" fill="#fff" stroke-linecap="round" stroke-linejoin="round"/>
		<path d="m302.79 1108.7v12.5h-17v-12.5" fill="#fff"/>
		<path d="m302.79 1121.2 1.5 2.5h-20l1.5-2.5" fill="#fff" stroke-linecap="round" stroke-linejoin="round"/>
		<path d="m282.79 1105.7h23" fill="none" stroke-linecap="round"/>
</g><g transform="matrix(3.0672 0 0 3.0676 -46.97 -3049.5)" stroke="#000" stroke-width="1.63">
	<path d="m270.79 1032.4c3.385-0.972 10.114 0.431 13.5-2 3.385 2.431 10.115 1.028 13.5 2 0 0 1.646 0.542 3 2-0.677 0.972-1.646 0.986-3 0.5-3.385-0.972-10.114 0.458-13.5-1-3.385 1.458-10.115 0.028-13.5 1-1.354 0.486-2.323 0.472-3-0.5 1.354-1.944 3-2 3-2z" fill="#fff" stroke-linejoin="round"/>
		<path d="m276.79 1028.4c2.5 2.5 12.5 2.5 15 0 0.5-1.5 0-2 0-2 0-2.5-2.5-4-2.5-4 5.5-1.5 6-11.5-5-15.5-11 4-10.5 14-5 15.5 0 0-2.5 1.5-2.5 4 0 0-0.5 0.5 0 2z" fill="#fff" stroke-linejoin="round"/>
		<path d="m286.79 1004.4c0 1.381-1.119 2.5-2.5 2.5s-2.5-1.119-2.5-2.5 1.119-2.5 2.5-2.5 2.5 1.12 2.5 2.5z" fill="#fff" stroke-linejoin="round"/>
		<path d="m279.29 1022.4h10" fill="none"/>
		<path d="m276.79 1026.4h15" fill="none"/>
		<path d="m284.29 1011.9v5" fill="none" stroke-linecap="round"/>
		<path d="m281.79 1014.4h5" fill="none" stroke-linecap="round"/>
</g><g transform="matrix(3.0672 0 0 3.0676 222.36 -3347.5)" stroke="#000" stroke-width="1.63">
	<path d="m280.79 1130.7h27v-3h-27v3z" fill="#fff" stroke-linejoin="round"/>
		<path d="m283.79 1127.7v-4h21v4h-21z" fill="#fff" stroke-linejoin="round"/>
		<path d="m282.79 1105.7v-5h4v2h5v-2h5v2h5v-2h4v5" fill="#fff" stroke-linejoin="round"/>
		<path d="m305.79 1105.7-3 3h-17l-3-3" fill="#fff" stroke-linecap="round" stroke-linejoin="round"/>
		<path d="m302.79 1108.7v12.5h-17v-12.5" fill="#fff"/>
		<path d="m302.79 1121.2 1.5 2.5h-20l1.5-2.5" fill="#fff" stroke-linecap="round" stroke-linejoin="round"/>
		<path d="m282.79 1105.7h23" fill="none" stroke-linecap="round"/>
</g><path d="m975 178.22c-6.772 0-12.27 5.497-12.27 12.27 0 2.715 0.902 5.253 2.396 7.286-5.987 3.442-10.064 9.857-10.064 17.255 0 6.24 2.89 11.777 7.381 15.434-9.199 3.245-22.717 17.015-22.717 41.316h70.546c0-24.301-13.518-38.071-22.717-41.316 4.491-3.657 7.381-9.194 7.381-15.434 0-7.397-4.077-13.813-10.064-17.255 1.495-2.033 2.396-4.57 2.396-7.286 1e-3 -6.773-5.495-12.27-12.268-12.27z" fill="#fff" stroke="#000" stroke-linecap="round" stroke-width="5"/><path d="m825 178.22c-6.772 0-12.27 5.497-12.27 12.27 0 2.715 0.902 5.253 2.396 7.286-5.987 3.442-10.064 9.857-10.064 17.255 0 6.24 2.89 11.777 7.381 15.434-9.199 3.245-22.717 17.015-22.717 41.316h70.547c0-24.301-13.518-38.071-22.717-41.316 4.49-3.657 7.38-9.194 7.38-15.434 0-7.397-4.077-13.813-10.064-17.255 1.495-2.033 2.396-4.57 2.396-7.286 1e-3 -6.773-5.495-12.27-12.268-12.27z" fill="#fff" stroke="#000" stroke-linecap="round" stroke-width="5"/><path d="m675 178.22c-6.772 0-12.269 5.497-12.269 12.27 0 2.715 0.901 5.253 2.396 7.286-5.986 3.442-10.063 9.857-10.063 17.255 0 6.24 2.889 11.777 7.38 15.434-9.199 3.245-22.717 17.015-22.717 41.316h70.547c0-24.301-13.518-38.071-22.717-41.316 4.491-3.657 7.38-9.194 7.38-15.434 0-7.397-4.077-13.813-10.063-17.255 1.494-2.033 2.396-4.57 2.396-7.286-1e-3 -6.773-5.497-12.27-12.27-12.27z" fill="#fff" stroke="#000" stroke-linecap="round" stroke-width="5"/><path d="m525 178.22c-6.772 0-12.269 5.497-12.269 12.27 0 2.715 0.901 5.253 2.396 7.286-5.987 3.442-10.064 9.857-10.064 17.255 0 6.24 2.89 11.777 7.38 15.434-9.198 3.245-22.716 17.015-22.716 41.316h70.546c0-24.301-13.518-38.071-22.717-41.316 4.491-3.657 7.381-9.194 7.381-15.434 0-7.397-4.077-13.813-10.064-17.255 1.494-2.033 2.396-4.57 2.396-7.286 1e-3 -6.773-5.496-12.27-12.269-12.27z" fill="#fff" stroke="#000" stroke-linecap="round" stroke-width="5"/><path d="m375 178.22c-6.772 0-12.269 5.497-12.269 12.27 0 2.715 0.901 5.253 2.396 7.286-5.987 3.442-10.064 9.857-10.064 17.255 0 6.24 2.89 11.777 7.381 15.434-9.199 3.245-22.717 17.015-22.717 41.316h70.546c0-24.301-13.518-38.071-22.717-41.316 4.491-3.657 7.381-9.194 7.381-15.434 0-7.397-4.077-13.813-10.064-17.255 1.494-2.033 2.396-4.57 2.396-7.286 1e-3 -6.773-5.496-12.27-12.269-12.27z" fill="#fff" stroke="#000" stroke-linecap="round" stroke-width="5"/><path d="m225 178.22c-6.772 0-12.269 5.497-12.269 12.27 0 2.715 0.902 5.253 2.396 7.286-5.987 3.442-10.064 9.857-10.064 17.255 0 6.24 2.89 11.777 7.381 15.434-9.199 3.245-22.717 17.015-22.717 41.316h70.546c0-24.301-13.518-38.071-22.717-41.316 4.491-3.657 7.38-9.194 7.38-15.434 0-7.397-4.077-13.813-10.064-17.255 1.495-2.033 2.396-4.57 2.396-7.286 1e-3 -6.773-5.496-12.27-12.268-12.27z" fill="#fff" stroke="#000" stroke-linecap="round" stroke-width="5"/><path d="m75.001 178.22c-6.772 0-12.269 5.497-12.269 12.27 0 2.715 0.902 5.253 2.396 7.286-5.987 3.442-10.064 9.857-10.064 17.255 0 6.24 2.889 11.777 7.38 15.434-9.199 3.245-22.717 17.015-22.717 41.316h70.546c0-24.301-13.518-38.071-22.717-41.316 4.491-3.657 7.381-9.194 7.381-15.434 0-7.397-4.077-13.813-10.064-17.255 1.495-2.033 2.396-4.57 2.396-7.286 0-6.773-5.496-12.27-12.268-12.27z" fill="#fff" stroke="#000" stroke-linecap="round" stroke-width="5"/><path d="m225 928.22c-6.772 0-12.269 5.497-12.269 12.27 0 2.716 0.902 5.253 2.396 7.286-5.987 3.441-10.064 9.857-10.064 17.255 0 6.239 2.89 11.776 7.381 15.434-9.199 3.245-22.717 17.015-22.717 41.316h70.546c0-24.302-13.518-38.071-22.717-41.316 4.491-3.657 7.38-9.194 7.38-15.434 0-7.397-4.077-13.813-10.064-17.255 1.495-2.033 2.396-4.57 2.396-7.286 1e-3 -6.773-5.496-12.27-12.268-12.27z" stroke="#fff" stroke-linecap="round" stroke-width="5"/><path d="m375 928.22c-6.772 0-12.269 5.497-12.269 12.27 0 2.716 0.901 5.253 2.396 7.286-5.986 3.441-10.064 9.857-10.064 17.255 0 6.239 2.89 11.776 7.381 15.434-9.199 3.245-22.717 17.015-22.717 41.316h70.547c0-24.302-13.518-38.071-22.717-41.316 4.491-3.657 7.38-9.194 7.38-15.434 0-7.397-4.077-13.813-10.063-17.255 1.494-2.033 2.396-4.57 2.396-7.286-2e-3 -6.773-5.498-12.27-12.27-12.27z" stroke="#fff" stroke-linecap="round" stroke-width="5"/><path d="m525 928.22c-6.772 0-12.269 5.497-12.269 12.27 0 2.716 0.901 5.253 2.396 7.286-5.987 3.441-10.064 9.857-10.064 17.255 0 6.239 2.89 11.776 7.38 15.434-9.198 3.245-22.716 17.015-22.716 41.316h70.546c0-24.302-13.518-38.071-22.717-41.316 4.491-3.657 7.381-9.194 7.381-15.434 0-7.397-4.077-13.813-10.064-17.255 1.494-2.033 2.396-4.57 2.396-7.286 1e-3 -6.773-5.496-12.27-12.269-12.27z" stroke="#fff" stroke-linecap="round" stroke-width="5"/><path d="m675 928.22c-6.772 0-12.27 5.497-12.27 12.27 0 2.716 0.902 5.253 2.396 7.286-5.987 3.441-10.064 9.857-10.064 17.255 0 6.239 2.89 11.776 7.381 15.434-9.199 3.245-22.717 17.015-22.717 41.316h70.546c0-24.302-13.518-38.071-22.717-41.316 4.491-3.657 7.381-9.194 7.381-15.434 0-7.397-4.077-13.813-10.064-17.255 1.495-2.033 2.396-4.57 2.396-7.286 0-6.773-5.496-12.27-12.268-12.27z" stroke="#fff" stroke-linecap="round" stroke-width="5"/><path d="m825 928.22c-6.772 0-12.269 5.497-12.269 12.27 0 2.716 0.901 5.253 2.396 7.286-5.986 3.441-10.063 9.857-10.063 17.255 0 6.239 2.889 11.776 7.38 15.434-9.199 3.245-22.717 17.015-22.717 41.316h70.547c0-24.302-13.518-38.071-22.717-41.316 4.491-3.657 7.38-9.194 7.38-15.434 0-7.397-4.077-13.813-10.063-17.255 1.494-2.033 2.396-4.57 2.396-7.286-1e-3 -6.773-5.497-12.27-12.27-12.27z" stroke="#fff" stroke-linecap="round" stroke-width="5"/><path d="m975 928.22c-6.772 0-12.269 5.497-12.269 12.27 0 2.716 0.901 5.253 2.396 7.286-5.987 3.441-10.064 9.857-10.064 17.255 0 6.239 2.89 11.776 7.38 15.434-9.198 3.245-22.716 17.015-22.716 41.316h70.546c0-24.302-13.518-38.071-22.717-41.316 4.491-3.657 7.381-9.194 7.381-15.434 0-7.397-4.077-13.813-10.064-17.255 1.494-2.033 2.396-4.57 2.396-7.286 1e-3 -6.773-5.497-12.27-12.269-12.27z" stroke="#fff" stroke-linecap="round" stroke-width="5"/><path d="m1125 928.22c-6.772 0-12.269 5.497-12.269 12.27 0 2.716 0.901 5.253 2.396 7.286-5.987 3.441-10.064 9.857-10.064 17.255 0 6.239 2.89 11.776 7.381 15.434-9.199 3.245-22.717 17.015-22.717 41.316h70.546c0-24.302-13.518-38.071-22.717-41.316 4.491-3.657 7.381-9.194 7.381-15.434 0-7.397-4.077-13.813-10.064-17.255 1.494-2.033 2.396-4.57 2.396-7.286 0-6.773-5.496-12.27-12.269-12.27z" stroke="#fff" stroke-linecap="round" stroke-width="5"/><g transform="translate(259.35 -264.38)">
	<path d="m-227.13 1436.2h85.549v-9.705h-85.549v9.705z" fill="none" stroke="#fff" stroke-linejoin="round" stroke-width="10"/>
		<path d="m-217.25 1415.5 5.106-8.088h54.832l5.106 8.088h-65.044z" fill="none" stroke="#fff" stroke-linejoin="round" stroke-width="5"/>
		<path d="m-217.27 1428.5v-12.94h65.519v12.94h-65.519z" fill="none" stroke="#fff" stroke-linejoin="round" stroke-width="10"/>
		<path d="m-211.43 1407.4v-42.055h53.403v42.055h-53.403z" fill="none" stroke="#fff" stroke-width="10"/>
		<path d="m-210.54 1367.3-10.211-8.087 72.719-0.179-10.212 8.088-52.296 0.178z" fill="none" stroke="#fff" stroke-linejoin="round" stroke-width="10"/>
		<path d="m-220.75 1357.3v-14.746h13.901v6.47h14.02v-6.47h18.163v6.47h12.091v-6.47h14.401v14.746h-72.576z" fill="none" stroke="#fff" stroke-linejoin="round" stroke-width="10"/>
		<path d="m-225.79 1436.1h82.815v-9.203h-82.815v9.203z" stroke="#000" stroke-linejoin="round" stroke-width="1.5"/>
		<path d="m-215.06 1414.7 4.601-7.669h52.143l4.601 7.669h-61.345z" stroke="#000" stroke-linejoin="round" stroke-width="1.5"/>
		<path d="m-216.59 1426.9v-12.271h64.412v12.271h-64.412z" stroke="#000" stroke-linejoin="round" stroke-width="1.5"/>
		<path d="m-210.46 1407v-39.878h52.143v39.878h-52.143z" stroke="#000" stroke-width="1.5"/>
		<path d="m-210.46 1367.1-9.202-7.669h70.546l-9.202 7.669h-52.142z" stroke="#000" stroke-linejoin="round" stroke-width="1.5"/>
		<path d="m-219.66 1359.4v-15.338h12.269v6.136h15.336v-6.136h15.336v6.136h15.336v-6.136h12.269v15.338h-70.546z" stroke="#000" stroke-linejoin="round" stroke-width="1.5"/>
		<path d="m-216.59 1424h64.412v0" fill="none" stroke="#fff" stroke-linecap="round" stroke-width="4"/>
		<path d="m-213.52 1412.1h58.277" fill="none" stroke="#fff" stroke-linecap="round" stroke-width="4"/>
		<path d="m-210.46 1407h52.143" fill="none" stroke="#fff" stroke-linecap="round"/>
		<path d="m-210.46 1367.1h52.143" fill="none" stroke="#fff" stroke-linecap="round"/>
		<path d="m-219.66 1359.4h70.546" fill="none" stroke="#fff" stroke-linecap="round" stroke-width="4"/>
</g><g transform="translate(1309.4 -264.38)">
	<path d="m-227.13 1436.2h85.55v-9.705h-85.55v9.705z" fill="none" stroke="#fff" stroke-linejoin="round" stroke-width="10"/>
		<path d="m-217.25 1415.5 5.105-8.088h54.831l5.106 8.088h-65.042z" fill="none" stroke="#fff" stroke-linejoin="round" stroke-width="5"/>
		<path d="m-217.27 1428.5v-12.94h65.518v12.94h-65.518z" fill="none" stroke="#fff" stroke-linejoin="round" stroke-width="10"/>
		<path d="m-211.43 1407.4v-42.055h53.403v42.055h-53.403z" fill="none" stroke="#fff" stroke-width="10"/>
		<path d="m-210.54 1367.3-10.212-8.087 72.719-0.179-10.212 8.088-52.295 0.178z" fill="none" stroke="#fff" stroke-linejoin="round" stroke-width="10"/>
		<path d="m-220.75 1357.3v-14.746h13.901v6.47h14.02v-6.47h18.162v6.47h12.092v-6.47h14.401v14.746h-72.576z" fill="none" stroke="#fff" stroke-linejoin="round" stroke-width="10"/>
		<path d="m-225.79 1436.1h82.814v-9.203h-82.814v9.203z" stroke="#000" stroke-linejoin="round" stroke-width="1.5"/>
		<path d="m-215.06 1414.7 4.601-7.669h52.143l4.602 7.669h-61.346z" stroke="#000" stroke-linejoin="round" stroke-width="1.5"/>
		<path d="m-216.59 1426.9v-12.271h64.412v12.271h-64.412z" stroke="#000" stroke-linejoin="round" stroke-width="1.5"/>
		<path d="m-210.46 1407v-39.878h52.143v39.878h-52.143z" stroke="#000" stroke-width="1.5"/>
		<path d="m-210.46 1367.1-9.201-7.669h70.546l-9.202 7.669h-52.143z" stroke="#000" stroke-linejoin="round" stroke-width="1.5"/>
		<path d="m-219.66 1359.4v-15.338h12.269v6.136h15.336v-6.136h15.336v6.136h15.337v-6.136h12.269v15.338h-70.547z" stroke="#000" stroke-linejoin="round" stroke-width="1.5"/>
		<path d="m-216.59 1424h64.412v0" fill="none" stroke="#fff" stroke-linecap="round" stroke-width="4"/>
		<path d="m-213.52 1412.1h58.277" fill="none" stroke="#fff" stroke-linecap="round" stroke-width="4"/>
		<path d="m-210.46 1407h52.143" fill="none" stroke="#fff" stroke-linecap="round"/>
		<path d="m-210.46 1367.1h52.143" fill="none" stroke="#fff" stroke-linecap="round"/>
		<path d="m-219.66 1359.4h70.546" fill="none" stroke="#fff" stroke-linecap="round" stroke-width="4"/>
</g><g transform="translate(-171.99 -1803.8)">
	<path d="m395.85 1836.3c37.531 4.162 54.641 26.149 53.007 94.792h-75.886c-0.893-36.918 30.719-21.425 24.182-68.821"/>
		<path d="m405.99 1863.2c1.371 9.71-16.586 24.578-25.311 30.02-10.697 6.671-10.052 14.485-17.828 13.342-4.119-5.333 0.434-5.904-3.566-3.335-3.565 0-14.273 3.335-14.262-13.342 0-6.671 18.894-40.026 18.894-40.026s5.296-6.345 5.703-11.674c-2.588-3.317-1.068-6.671-1.068-10.006 3.565-3.336 12.661 8.339 12.661 8.339h4.274s3.68-6.645 9.807-10.007c3.566 0 3.566 10.007 3.566 10.007"/>
		<path d="m354.99 1887c0 0.902-0.731 1.634-1.634 1.634-0.902 0-1.634-0.732-1.634-1.634 0-0.903 0.731-1.634 1.634-1.634s1.634 0.731 1.634 1.634z" fill="#f2f2f2"/>
		<path d="m372.75 1855.1c-1.354 2.345-3.085 3.88-3.867 3.429-0.781-0.452-0.317-2.718 1.036-5.063 1.354-2.345 3.085-3.88 3.867-3.429 0.781 0.451 0.318 2.718-1.036 5.063z" fill="#f2f2f2"/>
		<path d="m404.18 1837.6-0.98 3.596 1.798 0.327c10.136 1.56 20.667 7.303 28.025 21.226 7.359 13.923 9.551 35.835 7.926 68.335l-0.164 0.027h5.72v-0.027c1.644-32.873-2.865-55.088-10.622-69.766s-18.92-21.682-30.027-23.391l-1.676-0.327z"/>
		<path d="m396.95 1839.2c32.206 3.068 50.609 24.541 49.076 88.959h-70.546c0-27.608 30.672-19.939 24.538-64.419" fill="#fff" stroke="#000" stroke-linecap="round"/>
		<path d="m403.09 1863.7c1.179 8.931-17.032 22.604-24.538 27.608-9.202 6.135-8.647 13.322-15.336 12.271-3.195-2.896 4.335-9.318 0-9.203-3.067 0 0.575 3.778-3.067 6.135-3.067 0-12.278 3.068-12.269-12.27 0-6.135 18.403-36.811 18.403-36.811s5.784-5.835 6.134-10.737c-2.227-3.05-1.534-6.135-1.534-9.203 3.067-3.067 9.202 7.669 9.202 7.669h6.135s2.398-6.11 7.668-9.203c3.067 0 3.067 9.203 3.067 9.203" fill="#fff" stroke="#000" stroke-linecap="round" stroke-linejoin="round"/>
		<path d="m358.61 1886.7c0 0.847-0.687 1.534-1.534 1.534s-1.534-0.687-1.534-1.534 0.687-1.534 1.534-1.534 1.534 0.686 1.534 1.534z" stroke="#000" stroke-linecap="round" stroke-linejoin="round" stroke-width=".326"/>
		<path d="m375.28 1856.8c-1.271 2.201-2.895 3.642-3.628 3.218-0.733-0.423-0.298-2.551 0.972-4.751s2.895-3.642 3.628-3.218c0.734 0.423 0.298 2.55-0.972 4.751z" stroke="#000" stroke-linecap="round" stroke-linejoin="round" stroke-width=".326"/>
		<path d="m403.84 1840.4-0.92 3.375 1.687 0.307c9.513 1.464 19.396 6.854 26.301 19.92s9.892 32.666 8.367 63.167l-0.153 1.534h5.368v-1.534c1.542-30.85-3.617-50.734-10.897-64.509-7.28-13.774-17.756-20.348-28.18-21.952l-1.573-0.308z"/>
</g><g transform="translate(578.01 -1803.8)">
	<path d="m395.85 1836.3c37.531 4.162 54.642 26.149 53.008 94.792h-75.886c-0.893-36.918 30.719-21.425 24.183-68.821"/>
		<path d="m405.99 1863.2c1.371 9.71-16.586 24.578-25.311 30.02-10.697 6.671-10.053 14.485-17.828 13.342-4.119-5.333 0.434-5.904-3.566-3.335-3.565 0-14.273 3.335-14.262-13.342 0-6.671 18.894-40.026 18.894-40.026s5.296-6.345 5.702-11.674c-2.588-3.317-1.068-6.671-1.068-10.006 3.565-3.336 12.661 8.339 12.661 8.339h4.274s3.681-6.645 9.807-10.007c3.566 0 3.566 10.007 3.566 10.007"/>
		<path d="m354.99 1887c0 0.902-0.731 1.634-1.635 1.634-0.902 0-1.634-0.732-1.634-1.634 0-0.903 0.731-1.634 1.634-1.634 0.904 0 1.635 0.731 1.635 1.634z" fill="#f2f2f2"/>
		<path d="m372.75 1855.1c-1.354 2.345-3.085 3.88-3.866 3.429-0.782-0.452-0.318-2.718 1.035-5.063 1.354-2.345 3.085-3.88 3.867-3.429s0.318 2.718-1.036 5.063z" fill="#f2f2f2"/>
		<path d="m404.18 1837.6-0.98 3.596 1.798 0.327c10.137 1.56 20.667 7.303 28.025 21.226 7.359 13.923 9.551 35.835 7.926 68.335l-0.163 0.027h5.72v-0.027c1.644-32.873-2.865-55.088-10.622-69.766-7.758-14.678-18.92-21.682-30.027-23.391l-1.677-0.327z"/>
		<path d="m396.95 1839.2c32.205 3.068 50.609 24.541 49.075 88.959h-70.546c0-27.608 30.672-19.939 24.537-64.419" fill="#fff" stroke="#000" stroke-linecap="round"/>
		<path d="m403.09 1863.7c1.18 8.931-17.032 22.604-24.538 27.608-9.201 6.135-8.646 13.322-15.336 12.271-3.195-2.896 4.336-9.318 0-9.203-3.067 0 0.575 3.778-3.067 6.135-3.066 0-12.278 3.068-12.269-12.27 0-6.135 18.403-36.811 18.403-36.811s5.784-5.835 6.135-10.737c-2.228-3.05-1.534-6.135-1.534-9.203 3.067-3.067 9.202 7.669 9.202 7.669h6.135s2.397-6.11 7.668-9.203c3.067 0 3.067 9.203 3.067 9.203" fill="#fff" stroke="#000" stroke-linecap="round" stroke-linejoin="round"/>
		<path d="m358.61 1886.7c0 0.847-0.687 1.534-1.533 1.534-0.848 0-1.534-0.687-1.534-1.534s0.687-1.534 1.534-1.534c0.846 0 1.533 0.686 1.533 1.534z" stroke="#000" stroke-linecap="round" stroke-linejoin="round" stroke-width=".326"/>
		<path d="m375.28 1856.8c-1.271 2.201-2.895 3.642-3.628 3.218-0.734-0.423-0.299-2.551 0.972-4.751s2.896-3.642 3.629-3.218c0.733 0.423 0.297 2.55-0.973 4.751z" stroke="#000" stroke-linecap="round" stroke-linejoin="round" stroke-width=".326"/>
		<path d="m403.84 1840.4-0.92 3.375 1.687 0.307c9.513 1.464 19.396 6.854 26.302 19.92 6.905 13.066 9.892 32.666 8.366 63.167l-0.153 1.534h5.368v-1.534c1.542-30.85-3.617-50.734-10.897-64.509-7.28-13.774-17.756-20.348-28.18-21.952l-1.573-0.308z"/>
</g><g transform="translate(742.14 -755)">
	<path d="m231.71 1837.5c37.531 4.161 54.642 26.149 53.007 94.791h-75.885c-0.894-36.918 30.719-21.425 24.182-68.82" fill="#fff"/>
		<path d="m241.85 1864.4c1.37 9.711-16.586 24.578-25.312 30.02-10.696 6.671-10.052 14.486-17.828 13.343-4.118-5.333 0.435-5.904-3.565-3.336-3.565 0-14.273 3.336-14.263-13.342 0-6.672 18.895-40.026 18.895-40.026s5.295-6.345 5.702-11.675c-2.589-3.316-1.068-6.671-1.068-10.007 3.565-3.335 12.661 8.339 12.661 8.339h4.274s3.681-6.644 9.807-10.006c3.565 0 3.565 10.006 3.565 10.006" fill="#fff"/>
		<path d="m190.86 1888.2c0 0.902-0.732 1.635-1.635 1.635s-1.634-0.732-1.634-1.635 0.731-1.634 1.634-1.634 1.635 0.732 1.635 1.634z" fill="#f2f2f2"/>
		<path d="m208.62 1856.3c-1.354 2.345-3.085 3.88-3.867 3.429-0.781-0.451-0.317-2.718 1.036-5.063 1.354-2.345 3.085-3.88 3.866-3.429 0.782 0.451 0.318 2.717-1.035 5.063z" fill="#f2f2f2"/>
		<path d="m240.05 1838.8-0.98 3.596 1.798 0.326c10.137 1.56 20.667 7.303 28.025 21.227 7.358 13.923 9.551 35.834 7.926 68.335l-0.163 0.027h5.72v-0.027c1.643-32.872-2.865-55.088-10.622-69.766-7.758-14.678-18.921-21.683-30.028-23.392l-1.676-0.326z" fill="#fff"/>
		<path d="m232.82 1840.4c32.206 3.067 50.609 24.541 49.076 88.96h-70.547c0-27.608 30.673-19.939 24.538-64.419" stroke="#000" stroke-linecap="round"/>
		<path d="m238.95 1864.9c1.18 8.931-17.032 22.604-24.538 27.607-9.201 6.136-8.646 13.322-15.336 12.271-3.195-2.896 4.335-9.318 0-9.203-3.067 0 0.575 3.779-3.067 6.136-3.067 0-12.278 3.067-12.269-12.271 0-6.135 18.403-36.811 18.403-36.811s5.784-5.835 6.135-10.736c-2.228-3.051-1.534-6.135-1.534-9.203 3.067-3.067 9.202 7.669 9.202 7.669h6.134s2.398-6.11 7.669-9.202c3.066 0 3.066 9.202 3.066 9.202" stroke="#000" stroke-linecap="round" stroke-linejoin="round"/>
		<path d="m194.48 1887.9c0 0.847-0.687 1.533-1.534 1.533s-1.533-0.687-1.533-1.533c0-0.848 0.687-1.534 1.533-1.534 0.847 0 1.534 0.687 1.534 1.534z" fill="#fff" stroke="#fff" stroke-linecap="round" stroke-linejoin="round" stroke-width=".326"/>
		<path d="m211.14 1858c-1.271 2.201-2.895 3.642-3.629 3.218-0.733-0.423-0.298-2.551 0.973-4.751 1.271-2.201 2.896-3.642 3.629-3.219 0.733 0.424 0.298 2.552-0.973 4.752z" fill="#fff" stroke="#fff" stroke-linecap="round" stroke-linejoin="round" stroke-width=".326"/>
		<path d="m239.71 1841.6-0.921 3.374 1.688 0.307c9.513 1.464 19.396 6.854 26.302 19.92 6.905 13.066 9.892 32.666 8.366 63.167l-0.153 1.534h5.367v-1.534c1.543-30.85-3.616-50.734-10.896-64.509s-17.756-20.349-28.181-21.952l-1.572-0.307z" fill="#fff"/>
</g><g transform="translate(-7.8563 -755)">
	<path d="m231.71 1837.5c37.531 4.161 54.641 26.149 53.007 94.791h-75.885c-0.893-36.918 30.719-21.425 24.182-68.82" fill="#fff"/>
		<path d="m241.85 1864.4c1.371 9.711-16.585 24.578-25.311 30.02-10.697 6.671-10.052 14.486-17.828 13.343-4.119-5.333 0.434-5.904-3.566-3.336-3.565 0-14.274 3.336-14.263-13.342 0-6.672 18.894-40.026 18.894-40.026s5.296-6.345 5.703-11.675c-2.589-3.316-1.068-6.671-1.068-10.007 3.565-3.335 12.661 8.339 12.661 8.339h4.274s3.681-6.644 9.807-10.006c3.565 0 3.565 10.006 3.565 10.006" fill="#fff"/>
		<path d="m190.86 1888.2c0 0.902-0.732 1.635-1.634 1.635s-1.634-0.732-1.634-1.635 0.732-1.634 1.634-1.634 1.634 0.732 1.634 1.634z" fill="#f2f2f2"/>
		<path d="m208.62 1856.3c-1.354 2.345-3.085 3.88-3.867 3.429s-0.318-2.718 1.036-5.063 3.085-3.88 3.866-3.429c0.783 0.451 0.319 2.717-1.035 5.063z" fill="#f2f2f2"/>
		<path d="m240.05 1838.8-0.98 3.596 1.797 0.326c10.137 1.56 20.667 7.303 28.026 21.227 7.358 13.923 9.551 35.834 7.926 68.335l-0.164 0.027h5.72v-0.027c1.644-32.872-2.865-55.088-10.622-69.766s-18.92-21.683-30.028-23.392l-1.675-0.326z" fill="#fff"/>
		<path d="m232.82 1840.4c32.206 3.067 50.609 24.541 49.076 88.96h-70.546c0-27.608 30.672-19.939 24.538-64.419" stroke="#000" stroke-linecap="round"/>
		<path d="m238.95 1864.9c1.179 8.931-17.032 22.604-24.538 27.607-9.202 6.136-8.647 13.322-15.336 12.271-3.195-2.896 4.335-9.318 0-9.203-3.067 0 0.575 3.779-3.067 6.136-3.067 0-12.278 3.067-12.269-12.271 0-6.135 18.404-36.811 18.404-36.811s5.784-5.835 6.134-10.736c-2.227-3.051-1.534-6.135-1.534-9.203 3.067-3.067 9.202 7.669 9.202 7.669h6.134s2.398-6.11 7.668-9.202c3.067 0 3.067 9.202 3.067 9.202" stroke="#000" stroke-linecap="round" stroke-linejoin="round"/>
		<path d="m194.48 1887.9c0 0.847-0.687 1.533-1.534 1.533s-1.533-0.687-1.533-1.533c0-0.848 0.687-1.534 1.533-1.534 0.847 0 1.534 0.687 1.534 1.534z" fill="#fff" stroke="#fff" stroke-linecap="round" stroke-linejoin="round" stroke-width=".326"/>
		<path d="m211.14 1858c-1.271 2.201-2.895 3.642-3.629 3.218-0.733-0.423-0.298-2.551 0.973-4.751 1.271-2.201 2.895-3.642 3.628-3.219 0.734 0.424 0.299 2.552-0.972 4.752z" fill="#fff" stroke="#fff" stroke-linecap="round" stroke-linejoin="round" stroke-width=".326"/>
		<path d="m239.71 1841.6-0.92 3.374 1.687 0.307c9.513 1.464 19.396 6.854 26.302 19.92s9.892 32.666 8.367 63.167l-0.153 1.534h5.367v-1.534c1.542-30.85-3.617-50.734-10.897-64.509-7.28-13.774-17.756-20.349-28.18-21.952l-1.573-0.307z" fill="#fff"/>
</g><g transform="translate(477.62 1004.7)">
	<g transform="matrix(3.4157 0 0 3.329 -1005.3 -2662.9)">
		<path d="m250.79 848.36c2.471-1.234 10.115 0.127 13.5-2.303 3.385 2.431 11.125 0.963 13.352 2.303 2.202 1.325 1.942 0.902 2.556 2.589-0.677 0.972-1.054 1.593-2.408 1.107-3.385-0.972-10.115 0.458-13.5-1-3.385 1.459-10.115 0.028-13.5 1-1.354 0.486-1.731-0.21-2.408-1.183 1.353-1.945 0.057-1.34 2.408-2.513z" fill="#fff" stroke="#fff" stroke-linejoin="round" stroke-width=".4448"/>
		<path d="m256.79 845.56c2.5 2.5 12.5 2.5 15 0 0.5-1.5 0-2 0-2 0-2.5-2.062-4-2.062-4 5.5-1.5 5.562-11.5-5.438-15.5-11 4-10.722 14.152-5.222 15.652 0 0-2.352 0.969-2.352 3.469 0 0-0.426 0.879 0.074 2.379z" fill="#fff" stroke="#fff" stroke-linejoin="round" stroke-width=".4448"/>
		<path d="m267.31 822.84c0 1.636-1.402 2.962-3.132 2.962s-3.132-1.326-3.132-2.962 1.402-2.962 3.132-2.962c1.729 1e-3 3.132 1.327 3.132 2.962z" fill="#fff" stroke="#fff" stroke-linejoin="round" stroke-width=".3651"/>
		<path d="m259.29 839.56h10" fill="#ff8bff" stroke="#ff78ff" stroke-linecap="round" stroke-width=".4448"/>
		<path d="m264.28 829.06v5" fill="#ff8bff" stroke="#ff78ff" stroke-linecap="round" stroke-width=".4448"/>
		<path d="m261.79 831.56h5" fill="#ff8bff" stroke="#ff78ff" stroke-linecap="round" stroke-width=".4448"/>
	</g>
		<g transform="matrix(3.0672 0 0 3.0676 -913.48 -2443.6)" stroke-width=".489">
		<path d="m250.79 849.56c3.385-0.972 10.115 0.431 13.5-2 3.385 2.431 10.115 1.028 13.5 2 0 0 1.646 0.542 3 2-0.677 0.972-1.646 0.986-3 0.5-3.385-0.973-10.114 0.458-13.5-1-3.385 1.458-10.115 0.027-13.5 1-1.354 0.486-2.323 0.472-3-0.5 1.354-1.944 3-2 3-2z" stroke="#000" stroke-linejoin="round"/>
			<path d="m256.79 845.56c2.5 2.5 12.5 2.5 15 0 0.5-1.5 0-2 0-2 0-2.5-2.5-4-2.5-4 5.5-1.5 6-11.5-5-15.5-11 4-10.5 14-5 15.5 0 0-2.5 1.5-2.5 4 0 0-0.5 0.5 0 2z" stroke="#000" stroke-linejoin="round"/>
			<path d="m266.79 821.56c0 1.381-1.119 2.5-2.5 2.5s-2.5-1.119-2.5-2.5 1.119-2.5 2.5-2.5c1.38 0 2.5 1.12 2.5 2.5z" stroke="#000" stroke-linejoin="round"/>
			<path d="m259.29 839.56h10" fill="none" stroke="#fff" stroke-linecap="round"/>
			<path d="m256.79 843.56h15" fill="none" stroke="#fff" stroke-linecap="round"/>
			<path d="m264.29 829.06v5" fill="none" stroke="#fff" stroke-linecap="round"/>
			<path d="m261.79 831.56h5" fill="none" stroke="#fff" stroke-linecap="round"/>
	</g>
</g><g transform="translate(927.62 1004.7)">
	<g transform="matrix(3.4157 0 0 3.329 -1005.3 -2662.9)">
		<path d="m250.79 848.36c2.471-1.234 10.115 0.127 13.5-2.303 3.385 2.431 11.125 0.963 13.352 2.303 2.202 1.325 1.942 0.902 2.556 2.589-0.677 0.972-1.054 1.593-2.408 1.107-3.385-0.972-10.115 0.458-13.5-1-3.385 1.459-10.115 0.028-13.5 1-1.354 0.486-1.731-0.21-2.408-1.183 1.353-1.945 0.057-1.34 2.408-2.513z" fill="#fff" stroke="#fff" stroke-linejoin="round" stroke-width=".4448"/>
		<path d="m256.79 845.56c2.5 2.5 12.5 2.5 15 0 0.5-1.5 0-2 0-2 0-2.5-2.063-4-2.063-4 5.5-1.5 5.563-11.5-5.438-15.5-11 4-10.722 14.152-5.222 15.652 0 0-2.352 0.969-2.352 3.469 1e-3 0-0.425 0.879 0.075 2.379z" fill="#fff" stroke="#fff" stroke-linejoin="round" stroke-width=".4448"/>
		<path d="m267.31 822.84c0 1.636-1.402 2.962-3.132 2.962s-3.132-1.326-3.132-2.962 1.402-2.962 3.132-2.962c1.729 0 3.132 1.326 3.132 2.962z" fill="#fff" stroke="#fff" stroke-linejoin="round" stroke-width=".3651"/>
		<path d="m259.29 839.56h10" fill="#ff8bff" stroke="#ff78ff" stroke-linecap="round" stroke-width=".4448"/>
		<path d="m264.29 829.06v5" fill="#ff8bff" stroke="#ff78ff" stroke-linecap="round" stroke-width=".4448"/>
		<path d="m261.79 831.56h5" fill="#ff8bff" stroke="#ff78ff" stroke-linecap="round" stroke-width=".4448"/>
	</g>
		<g transform="matrix(3.0672 0 0 3.0676 -913.48 -2443.6)" stroke-width=".489">
		<path d="m250.79 849.56c3.385-0.972 10.114 0.431 13.5-2 3.385 2.431 10.115 1.028 13.5 2 0 0 1.646 0.542 3 2-0.677 0.972-1.646 0.986-3 0.5-3.385-0.973-10.115 0.458-13.5-1-3.385 1.458-10.115 0.027-13.5 1-1.354 0.486-2.323 0.472-3-0.5 1.354-1.944 3-2 3-2z" stroke="#000" stroke-linejoin="round"/>
			<path d="m256.78 845.56c2.5 2.5 12.5 2.5 15 0 0.5-1.5 0-2 0-2 0-2.5-2.5-4-2.5-4 5.5-1.5 6-11.5-5-15.5-11 4-10.5 14-5 15.5 0 0-2.5 1.5-2.5 4 0 0-0.499 0.5 0 2z" stroke="#000" stroke-linejoin="round"/>
			<path d="m266.79 821.56c0 1.381-1.119 2.5-2.5 2.5s-2.5-1.119-2.5-2.5 1.119-2.5 2.5-2.5c1.38 0 2.5 1.12 2.5 2.5z" stroke="#000" stroke-linejoin="round"/>
			<path d="m259.29 839.56h10" fill="none" stroke="#fff" stroke-linecap="round"/>
			<path d="m256.78 843.56h15" fill="none" stroke="#fff" stroke-linecap="round"/>
			<path d="m264.29 829.06v5" fill="none" stroke="#fff" stroke-linecap="round"/>
			<path d="m261.79 831.56h5" fill="none" stroke="#fff" stroke-linecap="round"/>
	</g>
</g><g transform="translate(-877.83 747.61)" stroke-linejoin="round">
	<path d="m1510.8 344.53c0 4.852-3.934 8.784-8.783 8.784-4.852 0-8.783-3.933-8.783-8.784s3.932-8.783 8.783-8.783c4.849-1e-3 8.783 3.932 8.783 8.783z" fill="#fff" stroke="#fff" stroke-linecap="round" stroke-width=".2277"/>
		<path d="m1535.6 333.51c0 4.852-3.932 8.784-8.781 8.784-4.852 0-8.783-3.933-8.783-8.784s3.932-8.783 8.783-8.783c4.849 0 8.781 3.932 8.781 8.783z" fill="#fff" stroke="#fff" stroke-linecap="round" stroke-width=".2277"/>
		<path d="m1561.6 330.74c0 4.851-3.932 8.783-8.781 8.783-4.852 0-8.783-3.933-8.783-8.783 0-4.852 3.932-8.784 8.783-8.784 4.849-1e-3 8.781 3.932 8.781 8.784z" fill="#fff" stroke="#fff" stroke-linecap="round" stroke-width=".2277"/>
		<path d="m1587.9 335.79c0 4.851-3.932 8.783-8.781 8.783-4.852 0-8.783-3.933-8.783-8.783 0-4.852 3.932-8.784 8.783-8.784 4.849 0 8.781 3.933 8.781 8.784z" fill="#fff" stroke="#fff" stroke-linecap="round" stroke-width=".2277"/>
		<path d="m1507.2 384.8c29.277-5.167 70.566-5.167 91.234 0l5.625-44.874-22.09 32.843-1.012-42.42-18.186 43.476-10.082-49.4-9.828 48.643-18.188-43.683-0.252 46.163-22.092-33.601 4.871 42.853z" fill="#fff" stroke="#fff"/>
		<path d="m1507.2 384.8c0 6.89 4.156 7.647 7.602 14.537 3.443 5.167 4.455 2.688 2.732 11.3-5.168 3.444-5.168 8.611-5.168 8.611-5.166 5.168 1.723 10.612 1.723 10.612 22.389 3.445 54.814 3.445 77.203 0 0 0 5.166-5.444 0-10.612 0 0 1.723-5.167-3.443-8.611-1.723-8.612 0.297-6.891 3.742-12.058 3.443-6.89 6.59-6.89 6.59-13.779-29.278-5.167-61.704-5.167-90.981 0z" fill="#fff" stroke="#fff"/>
		<path d="m1612.4 344.37c0 4.852-3.932 8.784-8.781 8.784-4.852 0-8.783-3.933-8.783-8.784s3.932-8.783 8.783-8.783c4.849 0 8.781 3.932 8.781 8.783z" fill="#fff" stroke="#fff" stroke-linecap="round" stroke-width=".2277"/>
		<g transform="matrix(3.0672 0 0 3.0676 -1332.8 -2735.4)" stroke-width=".326">
		<path d="m926.33 1004.1c0 1.105-0.895 2-2 2s-2-0.895-2-2 0.895-2 2-2 2 0.895 2 2z" stroke="#000" stroke-linecap="round"/>
			<path d="m942.83 999.57c0 1.104-0.895 2-2 2s-2-0.896-2-2c0-1.105 0.895-2 2-2s2 0.895 2 2z" stroke="#000" stroke-linecap="round"/>
			<path d="m959.33 1004.1c0 1.105-0.895 2-2 2s-2-0.895-2-2 0.895-2 2-2 2 0.895 2 2z" stroke="#000" stroke-linecap="round"/>
			<path d="m934.33 1000.6c0 1.105-0.895 2-2 2-1.104 0-2-0.895-2-2s0.896-2 2-2 2 0.895 2 2z" stroke="#000" stroke-linecap="round"/>
			<path d="m951.33 1001.1c0 1.105-0.895 2-1.999 2-1.105 0-2-0.896-2-2s0.895-2 2-2c1.104 0 1.999 0.895 1.999 2z" stroke="#000" stroke-linecap="round"/>
			<path d="m927.33 1018.1c8.5-1.5 21-1.5 27 0l1.999-12-6.999 11v-14l-5.5 13.5-3-15-3 15-5.5-14v14.5l-7-11 2 12z" stroke="#000"/>
			<path d="m927.33 1018.1c0 2 1.5 2 2.5 4 1 1.5 1 1 0.5 3.5-1.5 1-1.5 2.5-1.5 2.5-1.5 1.5 0.5 2.5 0.5 2.5 6.5 1 16.5 1 23 0 0 0 1.5-1 0-2.5 0 0 0.5-1.5-1-2.5-0.5-2.5-0.5-2 0.5-3.5 1-2 2.5-2 2.5-4-8.499-1.5-18.499-1.5-27 0z" stroke="#000"/>
			<path d="m929.83 1022.1c3.5-1 18.5-1 22 0" fill="none" stroke="#fff" stroke-linecap="round"/>
			<path d="m930.33 1025.6c6-1 15-1 21 0" fill="none" stroke="#fff" stroke-linecap="round"/>
			<path d="m928.83 1028.1c5-1 18.5-1 23.5 0" fill="none" stroke="#fff" stroke-linecap="round"/>
	</g>
</g><g transform="translate(-780.7 642.25)">
	<g transform="matrix(3.6775 0 0 3.6777 -684.87 -2670.1)" fill="#fff" stroke="#fff">
		<path d="m541.39 848.41v-5.625" stroke-linecap="round" stroke-width="1.6315"/>
		<path d="m541.39 859.95s4.775-7.569 3.275-10.569c0 0-1.275-2.431-3.275-2.431s-3.275 2.569-3.275 2.569c-1.5 2.999 3.275 10.431 3.275 10.431" stroke-width=".4079"/>
		<path d="m530.73 869.84c5.5 3.5 15.157 3.431 20.657-0.069l-0.069-6.313s7.352-3.608 4.352-9.607c-4-6.5-13.5-3.5-16 4l1.717 1.921v-3.5c-3.637-6.127-10.734-8.44-14.421-2.833-3 6 3.627 10 3.627 10l0.137 6.401z" stroke-linecap="round" stroke-linejoin="round" stroke-width=".4079"/>
		<path d="m538.89 844.78h5" stroke-linecap="round" stroke-width="1.6315"/>
	</g>
		<g transform="matrix(3.0672 0 0 3.0676 -329.1 -2142.9)" stroke-width=".489">
		<path d="m533.14 844.66v-5.625" fill="none" stroke="#000" stroke-linecap="round"/>
			<path d="m533.14 858.03s4.5-7.5 3-10.5c0 0-1-2.5-3-2.5s-3 2.5-3 2.5c-1.5 3 3 10.5 3 10.5" stroke="#000"/>
			<path d="m522.14 870.03c5.5 3.5 15.5 3.5 21 0v-7s9-4.5 6-10.5c-4-6.5-13.5-3.5-16 4v3.5-3.5c-3.5-7.5-13-10.5-16-4-3 6 5 10 5 10v7.5z" stroke="#000" stroke-linecap="round" stroke-linejoin="round"/>
			<path d="m530.64 841.03h5" fill="none" stroke="#000" stroke-linecap="round"/>
			<path d="m522.14 862.53c5.5-2.5 15.5-2.5 21 0.5" fill="none" stroke="#fff" stroke-linecap="round"/>
			<path d="m522.14 870.03c5.5-2.5 15.5-2.5 21 0" fill="none" stroke="#fff" stroke-linecap="round" stroke-linejoin="round"/>
			<path d="m522.14 866.53c5.5-2 15.5-2 21 0" fill="none" stroke="#fff" stroke-linecap="round" stroke-linejoin="round"/>
			<path d="m542.64 862.53s8.5-4 6.026-9.653c-3.879-5.85-13.026-1.847-15.526 4.653l0.012 2.097-0.012-2.097c-2.5-6.5-12.593-10.503-15.503-4.653-2.497 5.653 4.848 9 4.848 9" fill="none" stroke="#fff" stroke-linecap="round" stroke-linejoin="round"/>
	</g>
</g><g transform="translate(-146.34 -1766)" stroke-linejoin="round">
	<path d="m774.92 1852c29.278-5.167 72.082-3.021 92.749 2.146 0 0 10.279-44.535 6.384-50.369-3.896-5.834-21.965 27.034-21.965 27.034l-3.409-42.42-16.167 39.813s-5.767-35.353-11.218-35.132c-5.45 0.221-10.586 36.016-10.586 36.016s-8.621-33.79-15.661-33.454c-7.167 0.336-4.42 35.808-4.42 35.808s-16.775-31.037-20.702-25.898 4.995 46.456 4.995 46.456z" fill="#fff" stroke="#fff"/>
		<path d="m773.78 1846.8c0 7.295 1.277 11.128 7.33 17.286 1.759 2.693 4.382 3.224 2.24 8.555-5.669 3.647-5.795 11.139-5.795 11.139-1.755 5.218 2.016 11.11 2.016 11.11 24.564 3.647 56.479 3.66 82.178 0.379 0 0 3.396-4.502 2.146-9.974 0 0 0.248-8.375-4.157-12.149-1.006-6.72 1.084-6.411 3.727-10.115 4.032-6.158 5.338-7.295 5.338-14.59-32.124-5.471-62.9-7.113-95.023-1.641z" fill="#fff" stroke="#fff"/>
		<path d="m882.54 1808.4c0 5.827-4.724 10.551-10.551 10.551s-10.551-4.724-10.551-10.551c0-5.828 4.724-10.552 10.551-10.552s10.551 4.725 10.551 10.552z" fill="#fff" stroke="#fff" stroke-linecap="round" stroke-width=".1896"/>
		<path d="m781.23 1808.3c0 5.828-4.724 10.552-10.551 10.552-5.826 0-10.55-4.724-10.55-10.552s4.724-10.552 10.55-10.552c5.827 0 10.551 4.724 10.551 10.552z" fill="#fff" stroke="#fff" stroke-linecap="round" stroke-width=".1896"/>
		<path d="m776.98 1808.5c0 3.388-2.747 6.135-6.135 6.135s-6.135-2.747-6.135-6.135c0-3.389 2.747-6.135 6.135-6.135s6.135 2.746 6.135 6.135z" fill="#fff" stroke="#000" stroke-linecap="round" stroke-width="1.63"/>
		<path d="m831.87 1794.4c0 5.828-4.724 10.552-10.551 10.552-5.826 0-10.55-4.724-10.55-10.552s4.724-10.552 10.55-10.552c5.827 0 10.551 4.725 10.551 10.552z" fill="#fff" stroke="#fff" stroke-linecap="round" stroke-width=".1896"/>
		<path d="m827.58 1794.7c0 3.388-2.746 6.135-6.134 6.135-3.389 0-6.135-2.747-6.135-6.135s2.746-6.135 6.135-6.135c3.388-1e-3 6.134 2.746 6.134 6.135z" fill="#fff" stroke="#000" stroke-linecap="round" stroke-width="1.63"/>
		<path d="m878.19 1808.5c0 3.388-2.746 6.135-6.134 6.135-3.389 0-6.135-2.747-6.135-6.135 0-3.389 2.746-6.135 6.135-6.135 3.388-1e-3 6.134 2.746 6.134 6.135z" fill="#fff" stroke="#000" stroke-linecap="round" stroke-width="1.63"/>
		<path d="m805.86 1797.7c0 5.827-4.724 10.551-10.55 10.551-5.827 0-10.551-4.724-10.551-10.551 0-5.828 4.724-10.552 10.551-10.552 5.827 1e-3 10.55 4.725 10.55 10.552z" fill="#fff" stroke="#fff" stroke-linecap="round" stroke-width=".1896"/>
		<path d="m801.51 1797.7c0 3.389-2.746 6.135-6.134 6.135-3.389 0-6.135-2.747-6.135-6.135s2.746-6.135 6.135-6.135c3.388 0 6.134 2.747 6.134 6.135z" fill="#fff" stroke="#000" stroke-linecap="round" stroke-width="1.63"/>
		<path d="m858.13 1799.2c0 5.827-4.724 10.551-10.55 10.551-5.827 0-10.551-4.724-10.551-10.551 0-5.828 4.724-10.552 10.551-10.552 5.826 0 10.55 4.724 10.55 10.552z" fill="#fff" stroke="#fff" stroke-linecap="round" stroke-width=".1896"/>
		<path d="m853.66 1799.3c0 3.389-2.747 6.135-6.135 6.135s-6.135-2.747-6.135-6.135 2.747-6.135 6.135-6.135 6.135 2.746 6.135 6.135z" fill="#fff" stroke="#000" stroke-linecap="round" stroke-width="1.63"/>
		<path d="m780.04 1851.4c26.072-4.602 64.412-4.602 82.815 0l6.135-36.811-21.471 33.743v-42.946l-16.87 41.412-9.201-46.013-9.202 46.013-16.869-42.946v44.479l-21.471-33.743 6.134 36.812z" fill="#fff" stroke="#000" stroke-width="5"/>
		<path d="m780.04 1851.4c0 6.135 4.602 6.135 7.668 12.27 3.067 4.602 3.067 3.067 1.534 10.736-4.601 3.067-4.601 7.669-4.601 7.669-4.602 4.602 1.533 7.669 1.533 7.669 19.938 3.067 50.609 3.067 70.546 0 0 0 4.602-3.067 0-7.669 0 0 1.534-4.602-3.066-7.669-1.534-7.669-1.534-6.135 1.533-10.736 3.067-6.135 7.668-6.135 7.668-12.27-26.071-4.602-56.743-4.602-82.815 0z" fill="#fff" stroke="#000" stroke-width="5"/>
		<path d="m787.71 1863.7c10.735-3.067 56.744-3.067 67.479 0" fill="none" stroke="#000" stroke-linecap="round" stroke-width="5"/>
		<path d="m789.24 1874.4c18.403-3.067 46.009-3.067 64.412 0" fill="none" stroke="#000" stroke-linecap="round" stroke-width="5"/>
		<path d="m784.64 1882.1c15.336-3.067 56.743-3.067 72.079 0" fill="none" stroke="#000" stroke-linecap="round" stroke-width="5"/>
</g><g transform="translate(61.812 -1749.5)">
	<path d="m463.13 1790.1v-16.385" fill="none" stroke="#fff" stroke-linecap="round" stroke-width="8"/>
		<path d="m455.33 1779.7h15.337" fill="none" stroke="#fff" stroke-linecap="round" stroke-width="8"/>
		<path d="m463.28 1791v-17.255" fill="none" stroke="#000" stroke-linecap="round" stroke-width="5"/>
		<path d="m463.28 1832s13.803-23.007 9.201-32.21c0 0-3.066-7.668-9.201-7.668s-9.202 7.668-9.202 7.668c-4.601 9.203 9.202 32.21 9.202 32.21" fill="#fff" stroke="#000" stroke-width="5"/>
		<path d="m429.54 1868.8c16.869 10.736 47.542 10.736 64.411 0v-21.473s27.605-13.804 18.403-32.209c-12.269-19.939-41.407-10.736-49.075 12.271v10.736-10.736c-10.735-23.007-39.874-32.209-49.076-12.271-9.201 18.406 15.337 30.676 15.337 30.676v23.006z" fill="#fff" stroke="#000" stroke-linecap="round" stroke-linejoin="round" stroke-width="5"/>
		<path d="m455.61 1779.8h15.336" fill="none" stroke="#000" stroke-linecap="round" stroke-width="5"/>
		<path d="m429.54 1845.8c16.869-7.669 47.542-7.669 64.411 1.534" fill="none" stroke="#000" stroke-linecap="round" stroke-width="5"/>
		<path d="m429.54 1868.8c16.869-7.669 47.542-7.669 64.411 0" fill="none" stroke="#000" stroke-linecap="round" stroke-linejoin="round" stroke-width="5"/>
		<path d="m429.54 1858.1c16.869-6.135 47.542-6.135 64.411 0" fill="none" stroke="#000" stroke-linecap="round" stroke-linejoin="round" stroke-width="5"/>
</g></svg>
